# xmcd CD database file
#
# Track frame offsets:
#	150
#	19068
#	83345
#	100878
#	109549
#	136237
#	152650
#	181886
#	192670
#	211009
#
# Disc length: 2945 seconds
#
# Revision: 0
# Processed by: cddbd v1.5.2PL0 Copyright (c) Steve Scherf et al.
# Submitted via: CDex 1.51
#
DISCID=730b7f0a
DTITLE=Russ Lossing - Metal Rat
DYEAR=2007
DGENRE=Jazz
TTITLE0=Coming to Meet
TTITLE1=Turn
TTITLE2=Ch'ien
TTITLE3=Damp(ness)
TTITLE4=Is Thick With
TTITLE5=Dry(ist)
TTITLE6=Metal Rat
TTITLE7=Hidden Lines
TTITLE8=Fire Monkey
TTITLE9=Their Blood is Black and Yellow
EXTD=YEAR: 2007
EXTT0=
EXTT1=
EXTT2=
EXTT3=
EXTT4=
EXTT5=
EXTT6=
EXTT7=
EXTT8=
EXTT9=
PLAYORDER=
